<svg width="72" height="72" viewBox="0 0 72 72" fill="none" xmlns="http://www.w3.org/2000/svg">
<path d="M62.0617 39.7C64.6593 39.5002 66.7574 41.1986 66.9572 43.7962C67.157 46.4937 65.2588 48.6917 62.6612 48.8915C60.1635 49.0913 57.9656 47.193 57.7657 44.6954C57.5659 41.9979 59.3643 39.9997 62.0617 39.7Z" fill="#86DA2F"/>
<path d="M30.491 60.9802C30.491 58.3826 32.4892 56.3845 34.8869 56.3845C37.2847 56.3845 39.5826 58.5824 39.5826 61.0801C39.5826 63.4779 37.5844 65.5759 35.2866 65.6758C32.3893 65.6758 30.491 63.8775 30.491 60.9802Z" fill="#24C2FF"/>
<path d="M37.5845 31.8073C37.1849 32.0071 36.9851 31.7074 36.8852 31.4077C33.1886 24.5141 34.2876 15.8221 40.7816 10.627C42.48 9.22828 45.677 8.92855 47.0757 10.3273C47.6752 10.8268 47.7751 11.4262 47.875 12.1256C48.0748 13.6242 48.3745 15.1228 49.3736 16.3217C50.4726 17.6205 51.8713 18.12 53.4698 18.0201C54.8685 18.0201 56.2672 17.8203 57.1664 19.4188C57.6659 20.318 57.4661 23.8147 56.6668 24.5141C56.2672 24.8138 55.9675 24.614 55.6677 24.5141C53.3699 23.6149 50.9721 23.6149 48.5743 24.0145C47.7751 24.1144 47.3754 23.9146 47.3754 23.0155C47.2755 21.5169 46.9758 20.1182 46.1766 18.8194C44.678 16.1219 41.8805 16.022 40.0822 18.5196C38.5836 20.5178 38.184 22.9156 37.7844 25.3133C37.3847 27.4114 37.4846 29.6093 37.5845 31.8073C37.4846 31.8073 37.5845 31.8073 37.5845 31.8073Z" fill="#FFCB12"/>
<path d="M40.0822 33.3059C39.8824 33.0061 39.9823 32.7064 40.282 32.5066C45.9767 27.3114 54.4688 26.3124 61.0627 31.4076C62.7611 32.8063 63.8601 35.7036 62.9609 37.4021C62.5613 38.1014 62.0617 38.4011 61.4623 38.6009C60.0636 39.2004 58.7648 39.7998 57.8656 41.0986C56.9665 42.3974 56.7667 43.896 57.1663 45.4945C57.466 46.7933 57.9656 48.192 56.6668 49.3909C55.9674 50.0903 52.5706 50.6897 51.6714 50.0903C51.2718 49.7906 51.3717 49.4908 51.4716 49.0912C51.7713 46.5935 51.1719 44.2957 50.2727 42.0977C49.973 41.2984 50.0729 40.8988 50.8721 40.699C52.2708 40.2994 53.5696 39.6 54.5687 38.6009C56.7667 36.5029 56.2671 33.8054 53.3698 32.6065C51.072 31.6074 48.6742 31.8073 46.3763 32.0071C44.1784 32.107 42.0803 32.7064 40.0822 33.3059Z" fill="#86DA2F"/>
<path d="M38.7833 35.9035C39.0831 35.6038 39.2829 35.7037 39.5826 35.9035C46.1765 39.8998 49.5733 47.7925 46.5761 55.4853C45.7768 57.4835 43.1793 59.4816 41.281 58.9821C40.4818 58.7823 40.0821 58.3826 39.6825 57.8831C38.7833 56.6842 37.7843 55.5852 36.2857 55.0857C34.6871 54.5862 33.2884 54.8859 31.8897 55.6851C30.6909 56.3845 29.492 57.2837 27.9934 56.3845C27.0942 55.885 25.5956 52.7878 25.8953 51.7888C26.0951 51.3891 26.4947 51.3891 26.8944 51.3891C29.3921 50.9895 31.3902 49.7906 33.2884 48.1921C33.8879 47.6926 34.3874 47.6926 34.887 48.3919C35.6862 49.5908 36.6853 50.5899 37.9841 51.2892C40.5817 52.7878 43.0793 51.489 43.3791 48.4918C43.6788 45.9941 42.7796 43.7962 41.9804 41.5982C41.0812 39.6001 39.9822 37.7018 38.7833 35.9035Z" fill="#24C2FF"/>
<path d="M35.5864 36.503C35.1867 38.5011 34.2876 40.3994 33.0887 42.0978C29.492 47.4928 24.2968 49.6907 17.9028 49.0913C15.6049 48.8915 13.7067 46.9932 13.5069 45.095C13.407 44.2957 13.6068 43.6963 14.1063 43.0968C14.8057 42.1977 15.4051 41.3984 15.7048 40.2994C16.3043 38.1015 15.505 36.3032 13.9065 34.7046C11.7085 32.5067 12.0083 30.5085 14.6058 28.91C14.9056 28.7102 15.3052 28.5104 15.7048 28.3106C16.3043 28.0109 16.8038 28.0109 17.0036 28.7102C17.9028 31.0081 19.7011 32.7065 21.6993 34.1052C22.3986 34.7046 22.3986 35.1043 21.7992 35.8036C20.6003 37.1024 19.9009 38.7009 19.801 40.4993C19.6012 42.6972 20.9 44.0959 23.098 44.0959C24.4967 44.0959 25.7955 43.5964 26.9943 42.9969C30.0915 41.3984 32.4892 39.1006 34.7871 36.7028C35.0868 36.6029 35.1867 36.4031 35.5864 36.503Z" fill="#0069DA"/>
<path d="M19.2016 15.5224C19.4014 15.5224 19.9009 15.6224 20.4004 15.7223C24.097 16.4216 26.3949 15.1228 27.5938 11.6261C28.393 9.3282 30.0914 8.62885 32.2894 9.82773C32.3893 9.82773 32.3893 9.92764 32.4892 9.92764C34.7871 11.2264 34.7871 11.4262 33.3884 13.4244C32.1895 15.0229 31.59 16.8212 31.2903 18.7195C31.0905 19.8185 30.6909 20.0183 29.6918 19.6186C28.0933 19.0192 26.3949 19.0192 24.6965 19.6186C22.7982 20.2181 21.999 21.9165 22.5984 23.8147C23.3977 26.3124 25.5956 27.4114 27.4939 28.7102C29.3921 30.009 31.59 30.7083 33.6881 31.6075C33.9878 31.7074 34.4874 31.7074 34.3874 32.2069C34.2875 32.5067 33.8879 32.5067 33.4883 32.5067C28.9925 32.7065 24.6965 32.0071 21.1997 29.0099C17.9028 26.3124 15.505 23.0155 15.9046 18.4198C16.2043 16.9211 17.3033 15.8222 19.2016 15.5224Z" fill="#FF4649"/>
<path d="M11.0092 43.5964C8.61139 43.8961 6.21362 41.8979 6.01381 39.4003C5.81399 37.0025 7.81214 34.6047 10.11 34.4049C12.7076 34.1052 15.1054 35.9035 15.3052 38.3013C15.4051 40.5992 13.9065 43.3966 11.0092 43.5964Z" fill="#0069DA"/>
<path d="M52.9702 8.02938C55.4679 7.82957 57.8657 9.82771 58.0655 12.3254C58.2653 14.7232 56.2671 17.021 53.8694 17.2208C51.2718 17.4207 48.9739 15.5224 48.7741 13.0247C48.5743 10.5271 50.3726 8.2292 52.9702 8.02938Z" fill="#FFCB12"/>
<path d="M26.8944 9.92763C27.1941 12.5252 25.3957 14.7232 22.6982 15.1228C20.4004 15.4225 18.0026 13.5243 17.7029 11.3263C17.4032 8.42902 19.0017 6.33097 21.6992 6.03125C24.1969 5.73153 26.5946 7.62976 26.8944 9.92763Z" fill="#FF4649"/>
</svg>
