<svg version="1.2" xmlns="http://www.w3.org/2000/svg" viewBox="0 0 320 320" width="320" height="320">
	<title>Orange Pi Logo Vector</title>
	<style>
		.s0 { fill: #f6a721 } 
		.s1 { fill: #83bb26 } 
		.s2 { fill: #ffffff } 
	</style>
	<g id="Layer 1">
		<g id="&lt;Group&gt;">
			<path id="&lt;Path&gt;" class="s0" d="m264.8 206.4c-2.2-3.1-3.2-7-2.9-10.8q0.5-5.1 0.5-10.3 0-0.4 0-0.7c0-3.9 1.4-7.6 3.9-10.5 3.2-3.7 4.7-8.8 3.6-14-1.2-5.1-4.7-9.1-9.1-11.1-3.5-1.6-6.3-4.5-7.9-8q-2.3-5-5.1-9.7c-1.9-3.3-2.6-7.3-1.9-11.1 0.9-4.8-0.3-9.9-3.9-13.8-3.6-3.9-8.6-5.7-13.5-5.2-3.8 0.4-7.7-0.7-10.8-2.9q-4.5-3.2-9.2-5.9c-3.4-1.9-5.9-4.9-7.2-8.6-1.6-4.6-5.3-8.5-10.3-10-5-1.6-10.3-0.6-14.2 2.2-3.2 2.3-7 3.3-10.8 2.9q-5.1-0.5-10.4-0.5-0.3 0-0.6 0c-3.9 0.1-7.6-1.3-10.5-3.8-3.7-3.2-8.8-4.7-14-3.6-5.1 1.1-9.2 4.6-11.2 9.1-1.6 3.5-4.4 6.3-7.9 7.9q-5 2.3-9.7 5c-3.4 2-7.3 2.7-11.1 2-4.8-1-10 0.3-13.9 3.9-3.8 3.5-5.6 8.6-5.1 13.4 0.4 3.9-0.7 7.7-2.9 10.9q-3.2 4.4-5.9 9.2c-1.9 3.3-5 5.9-8.6 7.2-4.6 1.6-8.5 5.3-10.1 10.3-1.6 5-0.6 10.2 2.3 14.2 2.3 3.1 3.3 7 2.9 10.8q-0.5 5.1-0.5 10.4 0 0.3 0 0.6c0 3.9-1.3 7.6-3.9 10.5-3.2 3.7-4.7 8.8-3.5 14 1.1 5.1 4.6 9.1 9.1 11.1 3.5 1.6 6.3 4.5 7.9 8q2.2 5 5 9.7c2 3.3 2.7 7.3 1.9 11.1-0.9 4.8 0.4 9.9 3.9 13.8 3.6 3.9 8.6 5.7 13.5 5.2 3.9-0.4 7.7 0.7 10.9 2.9q4.4 3.2 9.2 5.9c3.3 1.9 5.9 4.9 7.1 8.6 1.6 4.6 5.3 8.5 10.4 10.1 5 1.5 10.2 0.5 14.2-2.3 3.1-2.3 7-3.3 10.8-2.9q5.1 0.5 10.3 0.5 0.4 0 0.7 0c3.8-0.1 7.6 1.3 10.5 3.8 3.7 3.2 8.8 4.7 13.9 3.6 5.2-1.1 9.2-4.6 11.2-9.1 1.6-3.5 4.5-6.3 8-7.9q5-2.3 9.7-5c3.3-2 7.2-2.7 11-2 4.8 1 10-0.3 13.9-3.9 3.9-3.5 5.6-8.6 5.1-13.4-0.4-3.9 0.7-7.7 3-10.9q3.2-4.4 5.9-9.2c1.9-3.3 4.9-5.9 8.6-7.2 4.6-1.6 8.4-5.3 10-10.3 1.6-5 0.6-10.2-2.3-14.2z"/>
			<path id="&lt;Compound Path&gt;" fill-rule="evenodd" class="s1" d="m156.9 63c3.3-7.6 10.1-20.2 23.4-29.7 15.7-11.2 32.3-12.1 52.5-13.3 11-0.6 27-0.5 46.2 3.2-7.9 2.7-19.4 7.6-31.6 16.4-15.8 11.4-19.2 19.6-29.8 26-9.8 5.9-26.4 10.4-55 1.9 3.8-5.3 9-11.3 15.8-17.1 14.2-12.3 28.9-18 38.6-20.9-8.7 1.8-21.3 5.4-34.8 13.3-11.5 6.7-19.8 14.3-25.3 20.2zm-31.7-7.6c-9.5-9.7-11.9-21.7-12.6-27.8 6.2 2.2 15.7 6.5 24 15.2 7.8 8.1 15.6 20.9 12.7 24-2.8 3-15.8-2.9-24.1-11.4z"/>
			<path id="&lt;Compound Path&gt;" fill-rule="evenodd" class="s2" d="m150.2 177.8c-0.5 0.3-1 0.3-1.4-0.1l-53.4-41.8c-3.9-3.3-3.7-9.3 0.4-12.3l19.6-14.3c4.1-3 10-1.3 11.9 3.4l23.3 63.8c0.1 0.4 0 1-0.4 1.3zm-3.4 4.6c-0.2 0.5-0.6 0.8-1.1 0.8l-67.8-2.5c-5.1-0.3-8.5-5.4-6.9-10.2l7.5-23.1c1.5-4.8 7.3-6.9 11.6-4.2l56.3 37.9c0.4 0.3 0.6 0.8 0.4 1.3zm0 5.7c0.2 0.5 0 1.1-0.4 1.3l-56.3 37.9c-4.3 2.7-10.1 0.6-11.6-4.2l-7.5-23.1c-1.6-4.8 1.8-9.9 6.9-10.2l67.8-2.5c0.5 0 1 0.3 1.1 0.8zm3.4 4.7c0.4 0.3 0.6 0.8 0.4 1.3l-23.3 63.7c-1.9 4.7-7.8 6.4-11.9 3.4l-19.6-14.3c-4.1-3-4.3-9-0.4-12.3l53.4-41.8c0.4-0.3 1-0.3 1.4 0zm5.4 1.7c0.6 0 1 0.4 1.1 0.8l18.6 65.3c1.3 4.9-2.5 9.7-7.6 9.7h-24.2c-5.1 0-8.8-4.8-7.6-9.7l18.6-65.3c0.2-0.4 0.6-0.8 1.1-0.8zm5.5-1.8c0.4-0.3 1-0.3 1.4 0.1l53.3 41.8c4 3.3 3.7 9.3-0.4 12.3l-19.6 14.3c-4.1 3-9.9 1.3-11.9-3.4l-23.2-63.7c-0.2-0.5 0-1.1 0.4-1.4zm3.3-4.6c0.2-0.5 0.7-0.8 1.2-0.8l67.8 2.5c5 0.3 8.4 5.4 6.9 10.2l-7.5 23.1c-1.6 4.8-7.3 6.9-11.6 4.2l-56.3-37.9c-0.4-0.3-0.6-0.8-0.5-1.3zm0-5.7c-0.1-0.5 0-1.1 0.5-1.3l56.3-37.9c4.3-2.7 10-0.6 11.6 4.2l7.5 23.1c1.5 4.8-1.9 9.9-6.9 10.2l-67.8 2.5c-0.6 0-1-0.3-1.2-0.8zm-3.4-4.7c-0.4-0.3-0.5-0.8-0.4-1.3l23.3-63.7c2-4.7 7.8-6.4 11.9-3.4l19.6 14.3c4.1 3 4.4 9 0.4 12.3l-53.4 41.8c-0.4 0.3-0.9 0.3-1.4 0zm-5.4-1.7c-0.5 0-1-0.3-1.1-0.8l-18.6-65.3c-1.2-4.9 2.5-9.7 7.6-9.7h24.2c5.1 0 8.9 4.8 7.6 9.7l-18.6 65.3c-0.1 0.5-0.6 0.8-1.1 0.8z"/>
			<path id="&lt;Compound Path&gt;" class="s0" d="m155.6 231.5c-2.1 0-3.9-1-5.1-2.6-1.2-1.6-1.6-3.7-1.1-5.6l6.2-22.6 6.2 22.5c0.6 2 0.2 4.1-1 5.7-1.2 1.6-3.1 2.6-5 2.6zm-23.4-7.6c-1.4 0-2.6-0.4-3.7-1.2l-0.2-0.1c-1.6-1.2-2.5-3-2.6-5 0-2.1 0.9-4 2.5-5.2l18.3-14.7-8.3 21.9c-0.9 2.6-3.3 4.3-6 4.3zm46.8 0c-2.7 0-5.2-1.7-6.1-4.3l-8.3-21.9 18.3 14.6c1.6 1.3 2.5 3.2 2.5 5.3 0 2-1 3.8-2.5 5l-0.3 0.1c-1 0.8-2.3 1.2-3.6 1.2zm-61.3-19.9c-2.8 0-5.2-1.7-6-4.3l-0.1-0.2c-0.6-1.9-0.3-4 0.8-5.6 1.2-1.7 3-2.7 5.1-2.8l23.4-1.1-19.6 12.9c-1.1 0.7-2.3 1.1-3.6 1.1zm75.7 0c-1.3 0-2.5-0.4-3.6-1.1l-19.6-12.9 23.4 1.1c2.1 0.1 3.9 1.1 5.1 2.7 1.2 1.7 1.5 3.7 0.9 5.6l-0.1 0.3c-0.9 2.6-3.3 4.3-6.1 4.3zm-75.9-24.6c-2.1-0.1-3.9-1.1-5.1-2.7-1.1-1.7-1.4-3.7-0.8-5.6v-0.3c0.9-2.6 3.3-4.3 6.1-4.3 1.3 0 2.5 0.4 3.6 1.1l19.6 12.9zm72.3-11.8c1.1-0.7 2.3-1.1 3.6-1.1 2.8 0 5.2 1.7 6.1 4.3l0.1 0.3c0.6 1.8 0.3 3.9-0.9 5.5-1.2 1.7-3 2.7-5.1 2.8l-23.4 1.1zm-61.6-9.5c-1.6-1.3-2.5-3.2-2.5-5.2 0.1-2 1-3.8 2.6-5l0.2-0.1c1.1-0.8 2.3-1.2 3.7-1.2 2.7 0 5.1 1.7 6 4.2l8.3 22zm44.7-7.3c0.9-2.6 3.4-4.3 6.1-4.3 1.3 0 2.5 0.4 3.6 1.2l0.2 0.1c1.6 1.2 2.6 3 2.6 5 0 2.1-0.9 4-2.5 5.2l-18.3 14.7zm-23.5-3.6c-0.6-2-0.2-4.1 1-5.7 1.2-1.6 3.1-2.6 5-2.6h0.3c2 0 3.8 1 5 2.6 1.2 1.6 1.6 3.7 1.1 5.6l-6.2 22.6z"/>
		</g>
	</g>
</svg>